<svg width="27" height="30" viewBox="0 0 27 30" fill="none" xmlns="http://www.w3.org/2000/svg">
<path d="M13.5 15C17.7609 15 21.2143 11.6426 21.2143 7.5C21.2143 3.35742 17.7609 0 13.5 0C9.23906 0 5.78571 3.35742 5.78571 7.5C5.78571 11.6426 9.23906 15 13.5 15ZM18.9 16.875H17.8935C16.5556 17.4727 15.067 17.8125 13.5 17.8125C11.933 17.8125 10.4504 17.4727 9.10647 16.875H8.1C3.62812 16.875 0 20.4023 0 24.75V27.1875C0 28.7402 1.29576 30 2.89286 30H24.1071C25.7042 30 27 28.7402 27 27.1875V24.75C27 20.4023 23.3719 16.875 18.9 16.875Z" fill="black"/>
</svg>
