<svg width="33" height="29" viewBox="0 0 33 29" fill="none" xmlns="http://www.w3.org/2000/svg">
<path d="M30.2569 17.0669L32.9652 5.28565C33.1608 4.43502 32.5068 3.625 31.6244 3.625H9.12129L8.59616 1.08693C8.4653 0.454315 7.90224 0 7.24906 0H1.375C0.615599 0 0 0.608604 0 1.35938V2.26562C0 3.0164 0.615599 3.625 1.375 3.625H5.37872L9.40334 23.0774C8.4405 23.6248 7.79167 24.6512 7.79167 25.8281C7.79167 27.5799 9.22809 29 11 29C12.7719 29 14.2083 27.5799 14.2083 25.8281C14.2083 24.9403 13.839 24.1383 13.2445 23.5625H25.2555C24.661 24.1383 24.2917 24.9403 24.2917 25.8281C24.2917 27.5799 25.7281 29 27.5 29C29.2719 29 30.7083 27.5799 30.7083 25.8281C30.7083 24.5723 29.97 23.4871 28.8991 22.9732L29.2152 21.5981C29.4107 20.7475 28.7568 19.9375 27.8744 19.9375H12.4963L12.1213 18.125H28.9161C29.5581 18.125 30.1146 17.6858 30.2569 17.0669Z" fill="black"/>
</svg>
